<svg xmlns="http://www.w3.org/2000/svg" width="200" height="200" viewBox="0 0 200 200">
  <defs>
    <linearGradient id="grad1" x1="0%" y1="0%" x2="100%" y2="100%">
      <stop offset="0%" style="stop-color:#0466C8;stop-opacity:1" />
      <stop offset="100%" style="stop-color:#0353A4;stop-opacity:1" />
    </linearGradient>
  </defs>
  <rect width="200" height="200" rx="20" ry="20" fill="url(#grad1)" />
  <g fill="#FFFFFF">
    <path d="M50,70 L150,70 L150,80 L110,80 L110,150 L90,150 L90,80 L50,80 Z" />
    <circle cx="100" cy="50" r="15" />
    <path d="M50,100 L70,100 L70,120 L50,120 Z" />
    <path d="M130,100 L150,100 L150,120 L130,120 Z" />
    <path d="M80,130 L120,130 L120,150 L80,150 Z" />
  </g>
  <g stroke="#FFFFFF" stroke-width="3" fill="none">
    <path d="M30,110 C50,90 80,130 100,90 C120,50 150,90 170,70" />
    <path d="M30,130 C50,110 80,150 100,110 C120,70 150,110 170,90" />
  </g>
</svg>
